<?xml version="1.0" encoding="UTF-8" standalone="yes"?>
<svg xmlns="http://www.w3.org/2000/svg" viewBox="0 0 64 64" width="64" height="64" fill="#000000">
  <path d="M 3 8 C 1.351563 8 0 9.351563 0 11 L 0 51 C 0 52.648438 1.351563 54 3 54 L 8 54 L 8 56 C 8 57.101563 8.898438 58 10 58 L 14 58 C 15.101563 58 16 57.101563 16 56 L 16 54 L 38.347656 54 C 39.710938 59.730469 44.859375 64 51 64 C 58.171875 64 64 58.171875 64 51 C 64 47.320313 62.460938 43.992188 60 41.628906 L 60 11 C 60 9.351563 58.648438 8 57 8 Z M 3 10 L 57 10 C 57.550781 10 58 10.449219 58 11 L 58 40.050781 C 57.371094 39.640625 56.699219 39.289063 56 39 L 56 36 C 56 34.898438 55.101563 34 54 34 L 52 34 C 50.898438 34 50 34.898438 50 36 L 50 38.050781 C 45.03125 38.421875 40.839844 41.601563 39 46 L 9 46 C 8.449219 46 8 45.550781 8 45 L 8 17 C 8 16.449219 8.449219 16 9 16 L 51 16 C 51.550781 16 52 16.449219 52 17 L 52 18 C 52 18.550781 52.449219 19 53 19 C 53.550781 19 54 18.550781 54 18 L 54 17 C 54 15.351563 52.648438 14 51 14 L 9 14 C 7.351563 14 6 15.351563 6 17 L 6 45 C 6 46.648438 7.351563 48 9 48 L 38.347656 48 C 38.121094 48.960938 38 49.96875 38 51 C 38 51.339844 38.011719 51.671875 38.050781 52 L 3 52 C 2.449219 52 2 51.550781 2 51 L 2 11 C 2 10.449219 2.449219 10 3 10 Z M 52 20 C 50.898438 20 50 20.898438 50 22 L 50 26 C 50 27.101563 50.898438 28 52 28 L 54 28 C 55.101563 28 56 27.101563 56 26 L 56 22 C 56 20.898438 55.101563 20 54 20 Z M 30 21 C 24.484375 21 20 25.484375 20 31 C 20 36.515625 24.484375 41 30 41 C 35.515625 41 40 36.515625 40 31 C 40 25.484375 35.515625 21 30 21 Z M 54 22 L 54 26 L 52 26 L 52 22 Z M 11 22 C 10.445313 22 10 22.449219 10 23 L 10 39 C 10 39.550781 10.445313 40 11 40 C 11.554688 40 12 39.550781 12 39 L 12 23 C 12 22.449219 11.554688 22 11 22 Z M 30 23 C 34.410156 23 38 26.589844 38 31 C 38 35.410156 34.410156 39 30 39 C 25.589844 39 22 35.410156 22 31 C 22 26.589844 25.589844 23 30 23 Z M 30 24 C 29.445313 24 29 24.449219 29 25 L 29 26.832031 C 29 27.382813 29.445313 27.832031 30 27.832031 C 30.554688 27.832031 31 27.382813 31 26.832031 L 31 25 C 31 24.449219 30.554688 24 30 24 Z M 25.816406 25.734375 C 25.5625 25.734375 25.304688 25.828125 25.109375 26.027344 C 24.71875 26.414063 24.71875 27.046875 25.109375 27.4375 L 26.40625 28.734375 C 26.597656 28.929688 26.855469 29.03125 27.109375 29.03125 C 27.367188 29.03125 27.625 28.929688 27.816406 28.734375 C 28.210938 28.347656 28.210938 27.714844 27.816406 27.324219 L 26.523438 26.027344 C 26.328125 25.828125 26.070313 25.734375 25.816406 25.734375 Z M 34.300781 25.734375 C 34.046875 25.734375 33.792969 25.828125 33.59375 26.027344 L 32.296875 27.324219 C 31.90625 27.710938 31.90625 28.34375 32.296875 28.734375 C 32.492188 28.933594 32.75 29.03125 33.003906 29.03125 C 33.261719 29.03125 33.519531 28.929688 33.714844 28.734375 L 35.011719 27.4375 C 35.402344 27.050781 35.402344 26.417969 35.011719 26.027344 C 34.8125 25.828125 34.558594 25.734375 34.300781 25.734375 Z M 53 29 C 52.445313 29 52 29.449219 52 30 L 52 32 C 52 32.550781 52.445313 33 53 33 C 53.554688 33 54 32.550781 54 32 L 54 30 C 54 29.449219 53.554688 29 53 29 Z M 24 30 C 23.445313 30 23 30.449219 23 31 C 23 31.550781 23.445313 32 24 32 L 25.832031 32 C 26.386719 32 26.832031 31.550781 26.832031 31 C 26.832031 30.449219 26.386719 30 25.832031 30 Z M 34.167969 30 C 33.613281 30 33.167969 30.449219 33.167969 31 C 33.167969 31.550781 33.613281 32 34.167969 32 L 36 32 C 36.554688 32 37 31.550781 37 31 C 37 30.449219 36.554688 30 36 30 Z M 32.890625 32.804688 C 32.632813 32.804688 32.378906 32.902344 32.183594 33.097656 C 31.789063 33.488281 31.789063 34.121094 32.183594 34.511719 L 33.476563 35.808594 C 33.671875 36 33.925781 36.097656 34.183594 36.097656 C 34.441406 36.097656 34.695313 36 34.890625 35.808594 C 35.28125 35.417969 35.28125 34.785156 34.890625 34.390625 L 33.59375 33.097656 C 33.398438 32.902344 33.144531 32.804688 32.890625 32.804688 Z M 27.113281 32.921875 C 26.855469 32.921875 26.601563 33.019531 26.40625 33.214844 L 25.109375 34.511719 C 24.71875 34.902344 24.71875 35.535156 25.109375 35.925781 C 25.304688 36.121094 25.558594 36.21875 25.816406 36.21875 C 26.074219 36.21875 26.328125 36.121094 26.523438 35.925781 L 27.816406 34.628906 C 28.210938 34.238281 28.210938 33.605469 27.816406 33.214844 C 27.625 33.019531 27.371094 32.921875 27.113281 32.921875 Z M 30 34 C 29.445313 34 29 34.449219 29 35 L 29 36.832031 C 29 37.382813 29.445313 37.832031 30 37.832031 C 30.554688 37.832031 31 37.382813 31 36.832031 L 31 35 C 31 34.449219 30.554688 34 30 34 Z M 52 36 L 54 36 L 54 38.347656 C 53.351563 38.199219 52.679688 38.089844 52 38.050781 Z M 51 40 C 52.679688 40 54.269531 40.378906 55.699219 41.050781 C 56.527344 41.441406 57.300781 41.929688 58 42.511719 C 58.761719 43.140625 59.429688 43.871094 60 44.679688 C 61.261719 46.46875 62 48.640625 62 51 C 62 57.070313 57.070313 62 51 62 C 45.96875 62 41.71875 58.609375 40.421875 54 C 40.230469 53.351563 40.109375 52.679688 40.050781 52 C 40.019531 51.671875 40 51.339844 40 51 C 40 49.960938 40.140625 48.949219 40.421875 48 C 40.609375 47.300781 40.878906 46.628906 41.199219 46 C 42.878906 42.71875 46.160156 40.390625 50 40.050781 C 50.328125 40.019531 50.660156 40 51 40 Z M 57 46 C 56.746094 46 56.488281 46.097656 56.292969 46.292969 L 49 53.585938 L 45.707031 50.292969 C 45.316406 49.902344 44.683594 49.902344 44.292969 50.292969 C 43.902344 50.683594 43.902344 51.316406 44.292969 51.707031 L 48.292969 55.707031 C 48.488281 55.902344 48.742188 56 49 56 C 49.257813 56 49.511719 55.902344 49.707031 55.707031 L 57.707031 47.707031 C 58.097656 47.316406 58.097656 46.683594 57.707031 46.292969 C 57.511719 46.097656 57.253906 46 57 46 Z M 10 54 L 14 54 L 14 56 L 10 56 Z"/>
</svg>
